<svg width="48" height="48" viewBox="0 0 48 48" fill="none" xmlns="http://www.w3.org/2000/svg">
<mask id="mask0_8512_13046" style="mask-type:alpha" maskUnits="userSpaceOnUse" x="5" y="5" width="38" height="38">
<circle cx="24" cy="24" r="19" fill="#D9D9D9"/>
</mask>
<g mask="url(#mask0_8512_13046)">
<g filter="url(#blur_8512_13046)">
<ellipse cx="25.7349" cy="3.38847" rx="6.99661" ry="10.1424" fill="#E6514C"/>
<ellipse cx="4.14895" cy="21.1795" rx="6.99661" ry="10.1424" fill="#E6514C"/>
<ellipse cx="16.731" cy="28.8807" rx="6.99661" ry="10.1424" fill="#DFCFB8"/>
<ellipse cx="13.1463" cy="15.9521" rx="10.739" ry="15.7288" transform="rotate(87.3966 13.1463 15.9521)" fill="#FEA87A"/>
<ellipse cx="8.97659" cy="34.1965" rx="2.82034" ry="9.27458" fill="#FF9867"/>
<ellipse cx="26.3405" cy="9.35756" rx="10.9017" ry="15.6203" transform="rotate(-62.5878 26.3405 9.35756)" fill="#EDCD9F"/>
<ellipse cx="23.1158" cy="7.07848" rx="5.22703" ry="9.0189" transform="rotate(-62.5878 23.1158 7.07848)" fill="#F5D3A2"/>
<ellipse cx="28.7719" cy="22.7508" rx="13.8305" ry="8.13559" fill="#CFB8C5"/>
<ellipse cx="12.3953" cy="32.7851" rx="12.8542" ry="7.53898" fill="#CFB8C5"/>
<ellipse cx="42.3328" cy="29.3144" rx="12.8542" ry="7.53898" fill="#CFB8C5"/>
<ellipse cx="15.5895" cy="14.5043" rx="13.8305" ry="2.60339" transform="rotate(16.8671 15.5895 14.5043)" fill="#CFB8C5"/>
<ellipse cx="32.6795" cy="37.5587" rx="7.32204" ry="10.5763" fill="#D8C3BB"/>
<path d="M22.5844 27.9175C22.2545 29.1587 22.231 30.481 22.5163 31.7367C22.8016 32.9924 23.3845 34.132 24.1999 35.0279C25.0154 35.9238 26.0311 36.5408 27.1335 36.8099C28.236 37.0791 29.3817 36.9896 30.4425 36.5517C31.5034 36.1137 32.4375 35.3445 33.1406 34.3301C33.8436 33.3157 34.2877 32.096 34.4234 30.8074C34.559 29.5189 34.3807 28.2123 33.9085 27.0337C33.4363 25.8552 32.6888 24.8512 31.7496 24.1339L28.3929 29.9654L22.5844 27.9175Z" fill="#DFCFB8"/>
<ellipse cx="8.32381" cy="34.196" rx="4.98983" ry="7.21356" fill="#FF6E31"/>
<ellipse cx="31.6149" cy="19.7829" rx="2.70379" ry="12.1598" transform="rotate(-56.1052 31.6149 19.7829)" fill="#FF6E31"/>
<ellipse cx="27.6162" cy="16.3818" rx="1.51093" ry="16.9563" transform="rotate(-67.0802 27.6162 16.3818)" fill="#FF4F00"/>
<ellipse cx="13.804" cy="23.9993" rx="10.9017" ry="3.85085" fill="#FF6E31"/>
<ellipse cx="14.0317" cy="24.0101" rx="10.9017" ry="3.85085" transform="rotate(-33.0735 14.0317 24.0101)" fill="#FF6E31"/>
<ellipse cx="5.55496" cy="24.4309" rx="9.81547" ry="8.74945" transform="rotate(-8.0011 5.55496 24.4309)" fill="#FF974D"/>
<ellipse cx="28.0591" cy="15.3314" rx="1.08854" ry="16.9563" transform="rotate(-67.0802 28.0591 15.3314)" fill="#FF4F00"/>
<ellipse cx="16.729" cy="38.9141" rx="19.1487" ry="3.85085" transform="rotate(-3.75678 16.729 38.9141)" fill="#E0D5C9"/>
<path d="M12.2697 17.4023C11.1446 17.7013 6.67724 18.3202 6.4814 18.3053L5.01701 18.3053C1.15893 15.9839 6.8166 17.093 6.91528 17.0088C7.1252 16.825 8.48103 16.9849 9.47173 16.5697C10.2545 16.3198 12.4692 15.4339 14.1869 15.3543C15.2539 15.3049 16.8451 15.5449 18.3277 15.637C19.8104 15.7291 21.0042 16.0401 21.9538 16.1901C22.9034 16.34 23.6178 16.744 24.4058 17.0088C25.1938 17.2736 26.2384 17.9198 27.7358 18.6228C29.2331 19.3259 31.2115 20.2576 32.397 20.9473C34.1647 21.9758 35.5298 22.5773 36.4746 23.4036C37.1318 23.9784 38.7682 24.9475 40.1521 25.7901C43.8554 28.0449 43.1497 28.0525 42.9289 29.8743C42.7519 31.3341 40.3763 29.4597 40.1632 29.8445C40.1562 29.8801 40.1468 29.8972 40.1521 29.8743C40.1546 29.8632 40.1584 29.8532 40.1632 29.8445C40.1691 29.8146 40.1732 29.7718 40.1656 29.7287C40.1316 29.5359 40.0526 29.3275 39.8746 29.2012C39.6877 29.0686 39.1507 28.8625 37.555 27.9602C36.3416 27.2741 34.3777 26.1153 32.8187 25.2059C31.2596 24.2966 30.1393 23.6562 29.047 22.9809C27.9547 22.3056 26.9023 21.6439 26.3531 21.2368C25.9384 20.9295 25.6197 20.5168 25.4297 20.2243C25.496 20.3506 25.579 20.5021 25.6787 20.6627C26.0647 21.2845 26.3394 21.7911 26.3414 23.0317C26.3449 25.294 25.0785 26.3128 25.0306 26.6875C24.9951 26.9644 24.6168 27.1865 24.4058 27.5257C23.4556 29.0534 23.7836 29.3927 22.156 31.0511C21.2077 32.0173 19.614 32.9534 19.6068 33.8715C19.5973 35.0947 21.4938 35.7627 21.9538 36.1277C22.401 36.4825 22.9612 36.7518 23.4556 36.9455C23.9514 37.1397 24.5156 37.6169 27.7358 37.1596C30.3988 36.7814 34.9038 35.8516 34.7933 36.1277L34.7909 36.1337C34.7473 36.2429 34.2537 37.4804 34.0882 37.6138C33.4511 38.1277 32.754 38.1087 32.397 38.3731C32.0185 38.6535 30.81 39.3524 29.9119 39.6748C29.6652 39.7634 28.1528 40.7364 25.6787 40.4884C24.494 40.3697 22.3188 41.1848 21.4646 40.9223C19.9312 40.4511 17.8767 39.8061 16.8407 39.1597C16.0455 38.6635 13.2586 37.545 12.2697 36.433C10.7244 34.6955 10.4271 33.3239 10.7119 33.1121C10.7497 33.0841 11.9759 32.2585 12.1014 32.2458C12.3212 32.2236 13.8597 31.5448 16.4606 30.445C18.5515 29.5608 19.5861 29.1608 19.8034 29.0534C20.3201 28.7981 21.4754 28.2535 22.6024 26.6875C23.0801 26.0236 23.1411 25.3059 23.2715 24.5969C23.3774 24.021 23.9033 22.89 23.2715 21.7437C22.8332 20.9485 22.7687 20.3873 20.8513 18.8096C19.7372 17.8929 18.9563 17.345 18.3277 17.2296C17.4245 17.0638 15.7815 16.9398 14.0838 17.0088C13.3495 17.0387 12.8956 17.2359 12.2697 17.4023Z" fill="#A9B0ED"/>
<ellipse cx="37.2903" cy="17.2282" rx="3.02711" ry="9.0189" transform="rotate(-32.6198 37.2903 17.2282)" fill="#FFE8D2"/>
<g filter="url(#filter0_n_8512_13046)">
<path d="M22.0136 37.301C30.5068 30.2614 25.0948 25.8239 22.4881 20.2188L29.1306 26.4911C32.274 30.3614 36.8916 34.4502 36.4849 35.5661C33.5425 46.226 18.102 40.5432 22.0136 37.301Z" fill="#FFF3E2"/>
</g>
<ellipse cx="40.6421" cy="22.6237" rx="2.50748" ry="6.72442" transform="rotate(-56.1052 40.6421 22.6237)" fill="#FF6E31"/>
<path d="M12.784 11.0876C12.1966 11.2213 11.8806 10.9642 11.8806 10.9642L11.4525 11.0146C11.3503 11.1995 11.2914 11.2592 11.2188 11.3309C11.1461 11.4026 11.0623 11.4839 11.0107 11.5709C10.9591 11.658 10.9333 11.7777 11.0312 11.7847C11.3175 11.8049 11.711 11.7903 12.1295 11.7626C13.0119 11.7042 13.5236 11.6499 14.0088 11.5749C15.0295 11.4171 15.9953 10.8148 17.8658 11.0146C18.5613 11.0889 19.5436 11.1455 20.5751 11.3309C21.8852 11.5664 23.0158 11.4317 23.9489 11.7847C24.3101 11.9213 25.652 12.561 27.9361 13.4187C29.1237 13.8647 30.2099 14.4455 30.9009 14.7478C31.592 15.0501 32.5552 15.5909 32.7412 15.7382C33.1542 16.0654 34.1895 16.7855 35.4505 17.9682C36.1486 18.6231 36.8811 19.2626 37.7508 20.3197C38.6204 21.3768 38.7662 22.7022 39.339 23.587C40.1896 24.9008 40.429 25.6025 40.7277 25.8305C40.7981 25.8842 40.8829 25.9079 40.9098 25.8794C40.9368 25.8509 40.9068 25.7727 40.8642 25.6766C40.6634 25.2248 40.5069 24.6425 40.348 24.2198C40.1925 23.8061 40.1473 23.304 40.0348 22.8918C39.8473 22.205 39.2257 20.7043 38.6998 19.9724C38.4202 19.5833 37.7194 18.8906 37.136 18.2948C36.7855 17.9369 36.1071 16.9353 34.4461 15.7382C33.871 15.3238 33.0571 14.7972 31.621 14.0222C30.185 13.2472 28.1872 12.2541 26.9764 11.685C25.7655 11.1159 25.354 10.9752 24.4582 10.7579C23.5623 10.5406 22.2227 10.2554 20.9632 10.1248C19.7037 9.99417 18.559 10.0174 17.0439 10.2418C15.5289 10.4662 13.6989 10.8794 12.784 11.0876Z" fill="#FF4D00"/>
</g>
<g filter="url(#filter1_n_8512_13046)">
<rect x="-18.8242" y="3.29492" width="71.0588" height="48" fill="white" fill-opacity="0.02"/>
</g>
</g>
<defs>
<filter id="blur_8512_13046" x="-6" y="-6" width="60" height="60" filterUnits="userSpaceOnUse" color-interpolation-filters="sRGB">
<feGaussianBlur stdDeviation="3"/>
</filter>
<filter id="filter0_n_8512_13046" x="21.3828" y="20.2188" width="15.1274" height="21.5273" filterUnits="userSpaceOnUse" color-interpolation-filters="sRGB">
<feFlood flood-opacity="0" result="BackgroundImageFix"/>
<feBlend mode="normal" in="SourceGraphic" in2="BackgroundImageFix" result="shape"/>
<feTurbulence type="fractalNoise" baseFrequency="9.2058801651000977 9.2058801651000977" stitchTiles="stitch" numOctaves="3" result="noise" seed="8171" />
<feColorMatrix in="noise" type="luminanceToAlpha" result="alphaNoise" />
<feComponentTransfer in="alphaNoise" result="coloredNoise1">
<feFuncA type="discrete" tableValues="1 1 1 1 1 1 1 1 1 1 1 1 1 1 1 1 1 1 1 1 1 1 1 1 1 1 1 1 1 1 1 1 1 1 1 1 1 1 1 1 1 1 1 1 1 1 1 1 1 1 1 0 0 0 0 0 0 0 0 0 0 0 0 0 0 0 0 0 0 0 0 0 0 0 0 0 0 0 0 0 0 0 0 0 0 0 0 0 0 0 0 0 0 0 0 0 0 0 0 0 "/>
</feComponentTransfer>
<feComposite operator="in" in2="shape" in="coloredNoise1" result="noise1Clipped" />
<feFlood flood-color="rgba(0, 0, 0, 0.25)" result="color1Flood" />
<feComposite operator="in" in2="noise1Clipped" in="color1Flood" result="color1" />
<feMerge result="effect1_noise_8512_13046">
<feMergeNode in="shape" />
<feMergeNode in="color1" />
</feMerge>
</filter>
<filter id="filter1_n_8512_13046" x="-23.8242" y="-1.70508" width="81.0586" height="58" filterUnits="userSpaceOnUse" color-interpolation-filters="sRGB">
<feFlood flood-opacity="0" result="BackgroundImageFix"/>
<feBlend mode="normal" in="SourceGraphic" in2="BackgroundImageFix" result="shape"/>
<feTurbulence type="fractalNoise" baseFrequency="8.0753345489501953 8.0753345489501953" stitchTiles="stitch" numOctaves="3" result="noise" seed="3226" />
<feColorMatrix in="noise" type="luminanceToAlpha" result="alphaNoise" />
<feComponentTransfer in="alphaNoise" result="coloredNoise1">
<feFuncA type="discrete" tableValues="0 0 0 0 0 0 0 0 0 0 0 0 0 0 0 0 1 1 1 1 1 1 1 1 1 1 1 1 1 1 1 1 1 1 0 0 0 0 0 0 0 0 0 0 0 0 0 0 0 0 0 0 0 0 0 0 0 0 0 0 0 0 0 0 0 0 0 0 0 0 0 0 0 0 0 0 0 0 0 0 0 0 0 0 0 0 0 0 0 0 0 0 0 0 0 0 0 0 0 0 "/>
</feComponentTransfer>
<feComposite operator="in" in2="shape" in="coloredNoise1" result="noise1Clipped" />
<feComponentTransfer in="alphaNoise" result="coloredNoise2">
<feFuncA type="discrete" tableValues="0 0 0 0 0 0 0 0 0 0 0 0 0 0 0 0 0 0 0 0 0 0 0 0 0 0 0 0 0 0 0 0 0 0 0 0 0 0 0 0 0 0 0 0 0 0 0 0 0 0 0 0 0 0 0 0 0 0 0 0 0 0 0 0 0 0 1 1 1 1 1 1 1 1 1 1 1 1 1 1 1 1 1 1 0 0 0 0 0 0 0 0 0 0 0 0 0 0 0 0 "/>
</feComponentTransfer>
<feComposite operator="in" in2="shape" in="coloredNoise2" result="noise2Clipped" />
<feFlood flood-color="#E0CFCA" result="color1Flood" />
<feComposite operator="in" in2="noise1Clipped" in="color1Flood" result="color1" />
<feFlood flood-color="rgba(255, 255, 255, 0.25)" result="color2Flood" />
<feComposite operator="in" in2="noise2Clipped" in="color2Flood" result="color2" />
<feMerge result="effect1_noise_8512_13046">
<feMergeNode in="shape" />
<feMergeNode in="color1" />
<feMergeNode in="color2" />
</feMerge>
</filter>
</defs>
</svg>
